<svg width="20" height="17" viewBox="0 0 20 17" fill="none" xmlns="http://www.w3.org/2000/svg">
<path fill-rule="evenodd" clip-rule="evenodd" d="M7.5 3.71875C7.5 2.83855 8.33947 2.125 9.375 2.125H10.625C11.6605 2.125 12.5 2.83855 12.5 3.71875V4.78125C12.5 5.66145 11.6605 6.375 10.625 6.375V7.4375H13.75C14.0952 7.4375 14.375 7.67535 14.375 7.96875V9.03125C14.375 9.32465 14.0952 9.5625 13.75 9.5625C13.4048 9.5625 13.125 9.32465 13.125 9.03125V8.5H6.875V9.03125C6.875 9.32465 6.59518 9.5625 6.25 9.5625C5.90482 9.5625 5.625 9.32465 5.625 9.03125V7.96875C5.625 7.67535 5.90482 7.4375 6.25 7.4375H9.375V6.375C8.33947 6.375 7.5 5.66145 7.5 4.78125V3.71875ZM3.75 12.2188C3.75 11.3385 4.58947 10.625 5.625 10.625H6.875C7.91053 10.625 8.75 11.3385 8.75 12.2188V13.2812C8.75 14.1615 7.91053 14.875 6.875 14.875H5.625C4.58947 14.875 3.75 14.1615 3.75 13.2812V12.2188ZM11.25 12.2188C11.25 11.3385 12.0895 10.625 13.125 10.625H14.375C15.4105 10.625 16.25 11.3385 16.25 12.2188V13.2812C16.25 14.1615 15.4105 14.875 14.375 14.875H13.125C12.0895 14.875 11.25 14.1615 11.25 13.2812V12.2188Z" fill="#1B2E35"/>
</svg>
